<svg viewBox="0 0 48 48" fill="none" xmlns="http://www.w3.org/2000/svg">
    <rect width="48" height="48" fill="white" />
    <g clip-path="url(#clip0_1_145)">
        <path
            d="M15.293 33.1875L10.6055 15.7656H13.2129L17.9004 33.1875H15.293ZM22.9668 31.1953C21.6777 31.1953 20.5189 30.9023 19.4902 30.3164C18.4616 29.7305 17.6478 28.8809 17.0488 27.7676C16.4499 26.6543 16.1504 25.3099 16.1504 23.7344C16.1504 22.1458 16.4499 20.7949 17.0488 19.6816C17.6478 18.5684 18.4616 17.7188 19.4902 17.1328C20.5189 16.5469 21.6777 16.2539 22.9668 16.2539C24.2559 16.2539 25.4115 16.5469 26.4336 17.1328C27.4622 17.7188 28.276 18.5684 28.875 19.6816C29.474 20.7949 29.7734 22.1458 29.7734 23.7344C29.7734 25.3229 29.474 26.6738 28.875 27.7871C28.276 28.8939 27.4622 29.7402 26.4336 30.3262C25.4115 30.9056 24.2559 31.1953 22.9668 31.1953ZM19.2656 23.7344C19.2656 25.2708 19.6009 26.446 20.2715 27.2598C20.9486 28.0736 21.847 28.4805 22.9668 28.4805C24.0801 28.4805 24.972 28.0736 25.6426 27.2598C26.3197 26.446 26.6582 25.2708 26.6582 23.7344C26.6582 22.1914 26.3197 21.013 25.6426 20.1992C24.972 19.3789 24.0801 18.9688 22.9668 18.9688C21.847 18.9688 20.9486 19.3789 20.2715 20.1992C19.6009 21.013 19.2656 22.1914 19.2656 23.7344ZM32.2383 34.877L33.0977 28.7832H36.0957L34.2793 34.877H32.2383ZM34.6309 24.0078C34.1491 24.0078 33.7422 23.8451 33.4102 23.5195C33.0781 23.1875 32.9121 22.7839 32.9121 22.3086C32.9121 21.8268 33.0781 21.4232 33.4102 21.0977C33.7422 20.7721 34.1491 20.6094 34.6309 20.6094C35.1126 20.6094 35.5195 20.7721 35.8516 21.0977C36.1836 21.4232 36.3496 21.8268 36.3496 22.3086C36.3496 22.7839 36.1836 23.1875 35.8516 23.5195C35.5195 23.8451 35.1126 24.0078 34.6309 24.0078Z"
            fill="#D53C58" />
        <path
            d="M15.293 33.1875L14.3273 33.4473L14.5265 34.1875H15.293V33.1875ZM10.6055 15.7656V14.7656H9.30085L9.63981 16.0254L10.6055 15.7656ZM13.2129 15.7656L14.1785 15.5058L13.9794 14.7656H13.2129V15.7656ZM17.9004 33.1875V34.1875H19.205L18.866 32.9277L17.9004 33.1875ZM16.2586 32.9277L11.5711 15.5058L9.63981 16.0254L14.3273 33.4473L16.2586 32.9277ZM10.6055 16.7656H13.2129V14.7656H10.6055V16.7656ZM12.2472 16.0254L16.9347 33.4473L18.866 32.9277L14.1785 15.5058L12.2472 16.0254ZM17.9004 32.1875H15.293V34.1875H17.9004V32.1875ZM19.4902 30.3164L18.9953 31.1853L19.4902 30.3164ZM19.4902 17.1328L18.9953 16.2639L19.4902 17.1328ZM26.4336 17.1328L25.9363 18.0004L25.9386 18.0017L26.4336 17.1328ZM28.875 27.7871L29.7545 28.2631L29.7556 28.2609L28.875 27.7871ZM26.4336 30.3262L26.9267 31.1961L26.9285 31.1951L26.4336 30.3262ZM20.2715 27.2598L19.4997 27.8957L19.5028 27.8993L20.2715 27.2598ZM25.6426 27.2598L24.8738 26.6202L24.8708 26.6238L25.6426 27.2598ZM25.6426 20.1992L24.8683 20.8321L24.8739 20.8388L25.6426 20.1992ZM20.2715 20.1992L19.5003 19.5627L19.4997 19.5633L20.2715 20.1992ZM22.9668 30.1953C21.8354 30.1953 20.8498 29.94 19.9852 29.4475L18.9953 31.1853C20.188 31.8647 21.52 32.1953 22.9668 32.1953V30.1953ZM19.9852 29.4475C19.1308 28.9608 18.4458 28.2535 17.9295 27.2938L16.1682 28.2414C16.8498 29.5082 17.7924 30.5001 18.9953 31.1853L19.9852 29.4475ZM17.9295 27.2938C17.4259 26.3577 17.1504 25.1846 17.1504 23.7344H15.1504C15.1504 25.4352 15.4739 26.9509 16.1682 28.2414L17.9295 27.2938ZM17.1504 23.7344C17.1504 22.2696 17.4265 21.0904 17.9295 20.1554L16.1682 19.2078C15.4733 20.4995 15.1504 22.0221 15.1504 23.7344H17.1504ZM17.9295 20.1554C18.4458 19.1957 19.1308 18.4884 19.9852 18.0017L18.9953 16.2639C17.7924 16.9491 16.8498 17.941 16.1682 19.2078L17.9295 20.1554ZM19.9852 18.0017C20.8498 17.5092 21.8354 17.2539 22.9668 17.2539V15.2539C21.52 15.2539 20.188 15.5845 18.9953 16.2639L19.9852 18.0017ZM22.9668 17.2539C24.0983 17.2539 25.0795 17.5092 25.9363 18.0004L26.9309 16.2653C25.7434 15.5845 24.4135 15.2539 22.9668 15.2539V17.2539ZM25.9386 18.0017C26.793 18.4884 27.478 19.1957 27.9944 20.1554L29.7556 19.2078C29.074 17.941 28.1315 16.9491 26.9285 16.2639L25.9386 18.0017ZM27.9944 20.1554C28.4974 21.0904 28.7734 22.2696 28.7734 23.7344H30.7734C30.7734 22.0221 30.4505 20.4995 29.7556 19.2078L27.9944 20.1554ZM28.7734 23.7344C28.7734 25.1992 28.4974 26.3784 27.9944 27.3133L29.7556 28.2609C30.4505 26.9693 30.7734 25.4467 30.7734 23.7344H28.7734ZM27.9955 27.3112C27.4797 28.2644 26.7945 28.9697 25.9386 29.4573L26.9285 31.1951C28.1299 30.5108 29.0724 29.5234 29.7545 28.2631L27.9955 27.3112ZM25.9404 29.4562C25.083 29.9423 24.1002 30.1953 22.9668 30.1953V32.1953C24.4115 32.1953 25.7399 31.8689 26.9267 31.1961L25.9404 29.4562ZM18.2656 23.7344C18.2656 25.3997 18.6272 26.8367 19.4997 27.8957L21.0432 26.6238C20.5747 26.0552 20.2656 25.1419 20.2656 23.7344H18.2656ZM19.5028 27.8993C20.3821 28.9562 21.5696 29.4805 22.9668 29.4805V27.4805C22.1244 27.4805 21.5151 27.1909 21.0402 26.6202L19.5028 27.8993ZM22.9668 29.4805C24.3597 29.4805 25.542 28.9544 26.4143 27.8957L24.8708 26.6238C24.402 27.1928 23.8005 27.4805 22.9668 27.4805V29.4805ZM26.4113 27.8993C27.2925 26.8402 27.6582 25.4016 27.6582 23.7344H25.6582C25.6582 25.14 25.3468 26.0518 24.8739 26.6202L26.4113 27.8993ZM27.6582 23.7344C27.6582 22.0618 27.2931 20.6195 26.4113 19.5596L24.8739 20.8388C25.3462 21.4066 25.6582 22.321 25.6582 23.7344H27.6582ZM26.4168 19.5663C25.5455 18.5004 24.3626 17.9688 22.9668 17.9688V19.9688C23.7975 19.9688 24.3985 20.2574 24.8683 20.8321L26.4168 19.5663ZM22.9668 17.9688C21.5667 17.9688 20.3785 18.4986 19.5003 19.5627L21.0427 20.8358C21.5186 20.2592 22.1273 19.9688 22.9668 19.9688V17.9688ZM19.4997 19.5633C18.6266 20.6229 18.2656 22.0637 18.2656 23.7344H20.2656C20.2656 22.3191 20.5752 21.4032 21.0432 20.8351L19.4997 19.5633ZM32.2383 34.877L31.2481 34.7373L31.0874 35.877H32.2383V34.877ZM33.0977 28.7832V27.7832H32.2288L32.1075 28.6436L33.0977 28.7832ZM36.0957 28.7832L37.054 29.0689L37.4373 27.7832H36.0957V28.7832ZM34.2793 34.877V35.877H35.0247L35.2376 35.1626L34.2793 34.877ZM33.4102 23.5195L32.703 24.2267L32.7101 24.2336L33.4102 23.5195ZM33.4102 21.0977L32.7101 20.3836L33.4102 21.0977ZM35.8516 21.0977L36.5516 20.3836L35.8516 21.0977ZM35.8516 23.5195L36.5517 24.2336L36.5587 24.2266L35.8516 23.5195ZM33.2285 35.0166L34.0879 28.9228L32.1075 28.6436L31.2481 34.7373L33.2285 35.0166ZM33.0977 29.7832H36.0957V27.7832H33.0977V29.7832ZM35.1374 28.4975L33.321 34.5913L35.2376 35.1626L37.054 29.0689L35.1374 28.4975ZM34.2793 33.877H32.2383V35.877H34.2793V33.877ZM34.6309 23.0078C34.4004 23.0078 34.2479 22.9405 34.1102 22.8055L32.7101 24.2336C33.2364 24.7496 33.8978 25.0078 34.6309 25.0078V23.0078ZM34.1173 22.8124C33.9753 22.6705 33.9121 22.5223 33.9121 22.3086H31.9121C31.9121 23.0455 32.1809 23.7045 32.703 24.2266L34.1173 22.8124ZM33.9121 22.3086C33.9121 22.0846 33.9777 21.9417 34.1102 21.8117L32.7101 20.3836C32.1786 20.9047 31.9121 21.569 31.9121 22.3086H33.9121ZM34.1102 21.8117C34.2479 21.6767 34.4004 21.6094 34.6309 21.6094V19.6094C33.8978 19.6094 33.2364 19.8676 32.7101 20.3836L34.1102 21.8117ZM34.6309 21.6094C34.8614 21.6094 35.0138 21.6767 35.1515 21.8117L36.5516 20.3836C36.0253 19.8676 35.3639 19.6094 34.6309 19.6094V21.6094ZM35.1515 21.8117C35.2841 21.9417 35.3496 22.0846 35.3496 22.3086H37.3496C37.3496 21.569 37.0831 20.9047 36.5516 20.3836L35.1515 21.8117ZM35.3496 22.3086C35.3496 22.5223 35.2864 22.6705 35.1445 22.8124L36.5587 24.2266C37.0808 23.7045 37.3496 23.0455 37.3496 22.3086H35.3496ZM35.1515 22.8055C35.0138 22.9405 34.8614 23.0078 34.6309 23.0078V25.0078C35.3639 25.0078 36.0253 24.7496 36.5516 24.2336L35.1515 22.8055Z"
            fill="#D43C58" />
    </g>
    <defs>
        <clipPath id="clip0_1_145">
            <rect width="32" height="32" fill="white" transform="translate(6 8)" />
        </clipPath>
    </defs>
</svg>